<svg xmlns="http://www.w3.org/2000/svg" view-box="0 0 24 24" width="24" height="24">
  <polygon points="7.5,7.5 7.5,5.9 7.5,3.3 3.3,7.5" fill="none" stroke="none" />
  <polygon points="18,15.2 18,13.5 16.5,13.5 16.5,16.5 13.5,16.5 13.5,18 16.5,18 16.5,21 18,21 18,18 21,18 21,16.5 
        18,16.5" fill="CurrentColor" stroke="none" />
  <path d="M19.5,1.5h-12C7.3,1.5,7.1,1.6,7,1.7L1.7,7C1.6,7.1,1.5,7.3,1.5,7.5v12C1.5,20.3,2.2,21,3,21h7.5v-1.5H3V9h4.5
        C8.3,9,9,8.3,9,7.5V3h10.5v7.5H21V3C21,2.2,20.3,1.5,19.5,1.5z M7.5,5.9v1.6H3.3l4.2-4.2V5.9z" fill="CurrentColor" stroke="none" stroke-linejoin="round" stroke-miterlimit="10" />
</svg>
